<svg width="1200" height="720" viewBox="0 0 1200 720" fill="none" xmlns="http://www.w3.org/2000/svg">
  <rect width="1200" height="720" fill="#f4f6fb"/>
  <rect x="40" y="32" width="1120" height="140" rx="16" fill="#1e293b"/>
  <text x="80" y="86" fill="#ffffff" font-family="Arial, sans-serif" font-size="20">@somosauxilia • Jovens em missão</text>
  <text x="80" y="126" fill="#ffffff" font-family="Arial, sans-serif" font-size="40" font-weight="700">Notícias e Agenda Auxilia</text>
  <rect x="80" y="150" width="180" height="34" rx="8" fill="#facc15"/>
  <rect x="272" y="150" width="190" height="34" rx="8" fill="#cbd5e1"/>

  <rect x="40" y="200" width="550" height="220" rx="16" fill="#ffffff" stroke="#e2e8f0"/>
  <text x="70" y="240" fill="#0f172a" font-family="Arial, sans-serif" font-size="28" font-weight="700">Notícias para a Juventude</text>
  <rect x="70" y="266" width="490" height="18" rx="6" fill="#e2e8f0"/>
  <rect x="70" y="302" width="490" height="30" rx="8" fill="#f8fafc" stroke="#e2e8f0"/>
  <rect x="70" y="340" width="490" height="30" rx="8" fill="#f8fafc" stroke="#e2e8f0"/>
  <rect x="70" y="378" width="490" height="30" rx="8" fill="#f8fafc" stroke="#e2e8f0"/>

  <rect x="610" y="200" width="550" height="220" rx="16" fill="#ffffff" stroke="#e2e8f0"/>
  <text x="640" y="240" fill="#0f172a" font-family="Arial, sans-serif" font-size="28" font-weight="700">Agenda Jovem</text>
  <rect x="640" y="266" width="490" height="18" rx="6" fill="#e2e8f0"/>
  <rect x="640" y="302" width="490" height="30" rx="8" fill="#f8fafc" stroke="#e2e8f0"/>
  <rect x="640" y="340" width="490" height="30" rx="8" fill="#f8fafc" stroke="#e2e8f0"/>
  <rect x="640" y="378" width="490" height="30" rx="8" fill="#f8fafc" stroke="#e2e8f0"/>

  <rect x="40" y="442" width="1120" height="230" rx="16" fill="#ffffff" stroke="#e2e8f0"/>
  <text x="70" y="482" fill="#0f172a" font-family="Arial, sans-serif" font-size="28" font-weight="700">Publicação de Conteúdo (Equipe)</text>
  <rect x="70" y="506" width="420" height="36" rx="8" fill="#f8fafc" stroke="#e2e8f0"/>
  <rect x="70" y="552" width="520" height="36" rx="8" fill="#f8fafc" stroke="#e2e8f0"/>
  <rect x="602" y="552" width="520" height="36" rx="8" fill="#f8fafc" stroke="#e2e8f0"/>
  <rect x="70" y="598" width="220" height="42" rx="8" fill="#0f172a"/>
  <text x="105" y="625" fill="#ffffff" font-family="Arial, sans-serif" font-size="18">Publicar notícia</text>
</svg>
